<svg xmlns="http://www.w3.org/2000/svg" xmlns:xlink="http://www.w3.org/1999/xlink" version="1.1" viewBox="0 0 50 50" fill="#F5A027">
    <polygon points="25,1.2 25,40.7 9.5,48.8 12.5,31.6 0,19.4 17.3,16.9"/>
    <path d="M50,19.4l-17.3-2.5L25,1.2l-7.7,15.7L0,19.4l12.5,12.2l-3,17.2L25,40.7l15.5,8.1l-3-17.2L50,19.4z M26.7,37.4   L25,36.5l-1.7,0.9L14.5,42l1.7-9.8l0.3-1.9l-1.4-1.4L8,22l9.8-1.4l1.9-0.3l0.9-1.8L25,9.6l4.4,8.9l0.9,1.8l1.9,0.3L42,22l-7.1,6.9   l-1.4,1.4l0.3,1.9l1.7,9.8L26.7,37.4z"/>
<div xmlns="" id="ctt_inpage_elements"><div id="ctt_element_styles" style="display: none !important;"><style type="text/css">div#ctt_element_1:hover{ background-color: #80ffeacc!important;}</style></div><div id="ctt_element_1" style="width: 4px;" class="ctt_inpage_element ctt_inpage_element_border_line ctt_pos_left ctt_hint--bounce ctt_hint--right ctt_hint--img ctt_hint--img_1 ctt_hint--no-shadow"/></div></svg>